<mxfile host="app.diagrams.net" modified="2022-07-26T22:39:42.378Z" agent="5.0 (Macintosh; Intel Mac OS X 10_15_7) AppleWebKit/537.36 (KHTML, like Gecko) Chrome/103.0.0.0 Safari/537.36" etag="9Z4ofJly14YG-sqjpjCJ" version="20.0.4" type="github">
  <diagram id="xXKPPlEvfWLIuXLd3lZw" name="Page-1">
    <mxGraphModel dx="2037" dy="1099" grid="1" gridSize="10" guides="1" tooltips="1" connect="1" arrows="1" fold="1" page="1" pageScale="1" pageWidth="850" pageHeight="1100" math="0" shadow="0">
      <root>
        <mxCell id="0" />
        <mxCell id="1" parent="0" />
        <mxCell id="JYd7_30XWuRbHft9SAFf-1" value="&lt;b style=&quot;font-family: &amp;quot;Nokia Pure Text&amp;quot;; font-size: 18px;&quot;&gt;gNMIc&lt;/b&gt;" style="rounded=1;whiteSpace=wrap;html=1;align=center;verticalAlign=bottom;fillColor=#eeeeee;strokeColor=#36393d;fontFamily=Manrope;fontSource=https%3A%2F%2Ffonts.googleapis.com%2Fcss%3Ffamily%3DManrope;" parent="1" vertex="1">
          <mxGeometry x="150" y="690" width="580" height="390" as="geometry" />
        </mxCell>
        <mxCell id="JYd7_30XWuRbHft9SAFf-2" value="&lt;blockquote style=&quot;margin: 0px 0px 0px 40px; border: none; padding: 0px; font-size: 16px;&quot;&gt;&lt;span style=&quot;white-space: pre;&quot;&gt; &lt;/span&gt;InfluxDB Output&lt;br&gt;&lt;span style=&quot;white-space: pre;&quot;&gt; &lt;/span&gt;(cache enabled)&lt;/blockquote&gt;" style="rounded=1;whiteSpace=wrap;html=1;align=left;verticalAlign=top;fillColor=#dae8fc;strokeColor=#6c8ebf;fontFamily=Manrope;fontSource=https%3A%2F%2Ffonts.googleapis.com%2Fcss%3Ffamily%3DManrope;" parent="1" vertex="1">
          <mxGeometry x="344" y="740" width="346" height="310" as="geometry" />
        </mxCell>
        <mxCell id="JYd7_30XWuRbHft9SAFf-3" value="cache" style="shape=cylinder3;whiteSpace=wrap;html=1;boundedLbl=1;backgroundOutline=1;size=15;fontSize=17;fillColor=#f8cecc;strokeColor=#b85450;verticalAlign=bottom;fontFamily=Manrope;fontSource=https%3A%2F%2Ffonts.googleapis.com%2Fcss%3Ffamily%3DManrope;" parent="1" vertex="1">
          <mxGeometry x="414" y="830" width="106" height="210" as="geometry" />
        </mxCell>
        <mxCell id="JYd7_30XWuRbHft9SAFf-4" style="edgeStyle=orthogonalEdgeStyle;rounded=0;orthogonalLoop=1;jettySize=auto;html=1;exitX=1;exitY=0.5;exitDx=0;exitDy=0;entryX=0;entryY=0.5;entryDx=0;entryDy=0;fontFamily=Manrope;fontSource=https%3A%2F%2Ffonts.googleapis.com%2Fcss%3Ffamily%3DManrope;" parent="1" source="JYd7_30XWuRbHft9SAFf-6" target="JYd7_30XWuRbHft9SAFf-10" edge="1">
          <mxGeometry relative="1" as="geometry">
            <Array as="points">
              <mxPoint x="319" y="950" />
              <mxPoint x="319" y="910" />
            </Array>
          </mxGeometry>
        </mxCell>
        <mxCell id="JYd7_30XWuRbHft9SAFf-5" style="edgeStyle=orthogonalEdgeStyle;rounded=0;orthogonalLoop=1;jettySize=auto;html=1;exitX=1;exitY=0.5;exitDx=0;exitDy=0;entryX=0;entryY=0.5;entryDx=0;entryDy=0;fontFamily=Manrope;fontSource=https%3A%2F%2Ffonts.googleapis.com%2Fcss%3Ffamily%3DManrope;" parent="1" source="JYd7_30XWuRbHft9SAFf-6" target="JYd7_30XWuRbHft9SAFf-11" edge="1">
          <mxGeometry relative="1" as="geometry">
            <Array as="points">
              <mxPoint x="319" y="950" />
              <mxPoint x="319" y="980" />
            </Array>
          </mxGeometry>
        </mxCell>
        <mxCell id="JYd7_30XWuRbHft9SAFf-6" value="collector" style="rounded=1;whiteSpace=wrap;html=1;fillColor=#ffe6cc;strokeColor=#d79b00;fontFamily=Manrope;fontSource=https%3A%2F%2Ffonts.googleapis.com%2Fcss%3Ffamily%3DManrope;" parent="1" vertex="1">
          <mxGeometry x="168" y="917.5" width="120" height="60" as="geometry" />
        </mxCell>
        <mxCell id="JYd7_30XWuRbHft9SAFf-7" style="edgeStyle=orthogonalEdgeStyle;rounded=0;orthogonalLoop=1;jettySize=auto;html=1;exitX=1;exitY=0.5;exitDx=0;exitDy=0;entryX=0;entryY=0.5;entryDx=0;entryDy=0;fontFamily=Manrope;fontSource=https%3A%2F%2Ffonts.googleapis.com%2Fcss%3Ffamily%3DManrope;" parent="1" source="JYd7_30XWuRbHft9SAFf-8" target="JYd7_30XWuRbHft9SAFf-6" edge="1">
          <mxGeometry relative="1" as="geometry" />
        </mxCell>
        <mxCell id="JYd7_30XWuRbHft9SAFf-8" value="router" style="rounded=1;whiteSpace=wrap;html=1;fillColor=#f5f5f5;fontColor=#333333;strokeColor=#666666;fontFamily=Manrope;fontSource=https%3A%2F%2Ffonts.googleapis.com%2Fcss%3Ffamily%3DManrope;" parent="1" vertex="1">
          <mxGeometry x="30" y="902.5" width="70" height="40" as="geometry" />
        </mxCell>
        <mxCell id="JYd7_30XWuRbHft9SAFf-9" value="subscription cache" style="shape=cylinder3;whiteSpace=wrap;html=1;boundedLbl=1;backgroundOutline=1;size=15;fillColor=#fff2cc;strokeColor=#d6b656;fontFamily=Manrope;fontSource=https%3A%2F%2Ffonts.googleapis.com%2Fcss%3Ffamily%3DManrope;" parent="1" vertex="1">
          <mxGeometry x="427" y="870" width="80" height="65" as="geometry" />
        </mxCell>
        <mxCell id="JYd7_30XWuRbHft9SAFf-10" value="sub1" style="rounded=0;whiteSpace=wrap;html=1;fillColor=#fff2cc;strokeColor=#d6b656;fontFamily=Manrope;fontSource=https%3A%2F%2Ffonts.googleapis.com%2Fcss%3Ffamily%3DManrope;" parent="1" vertex="1">
          <mxGeometry x="377" y="900" width="50" height="20" as="geometry" />
        </mxCell>
        <mxCell id="JYd7_30XWuRbHft9SAFf-11" value="sub2" style="rounded=0;whiteSpace=wrap;html=1;fillColor=#fff2cc;strokeColor=#d6b656;fontFamily=Manrope;fontSource=https%3A%2F%2Ffonts.googleapis.com%2Fcss%3Ffamily%3DManrope;" parent="1" vertex="1">
          <mxGeometry x="379" y="970" width="50" height="20" as="geometry" />
        </mxCell>
        <mxCell id="JYd7_30XWuRbHft9SAFf-12" value="subscription cache" style="shape=cylinder3;whiteSpace=wrap;html=1;boundedLbl=1;backgroundOutline=1;size=15;fillColor=#fff2cc;strokeColor=#d6b656;fontFamily=Manrope;fontSource=https%3A%2F%2Ffonts.googleapis.com%2Fcss%3Ffamily%3DManrope;" parent="1" vertex="1">
          <mxGeometry x="427" y="940" width="80" height="65" as="geometry" />
        </mxCell>
        <mxCell id="JYd7_30XWuRbHft9SAFf-13" style="edgeStyle=orthogonalEdgeStyle;rounded=0;orthogonalLoop=1;jettySize=auto;html=1;exitX=0.5;exitY=0;exitDx=0;exitDy=0;entryX=0.5;entryY=1;entryDx=0;entryDy=0;fontFamily=Manrope;fontSource=https%3A%2F%2Ffonts.googleapis.com%2Fcss%3Ffamily%3DManrope;" parent="1" source="JYd7_30XWuRbHft9SAFf-14" target="JYd7_30XWuRbHft9SAFf-43" edge="1">
          <mxGeometry relative="1" as="geometry" />
        </mxCell>
        <mxCell id="JYd7_30XWuRbHft9SAFf-14" value="influxDB client" style="rounded=1;whiteSpace=wrap;html=1;fillColor=#f8cecc;strokeColor=#b85450;fontFamily=Manrope;fontSource=https%3A%2F%2Ffonts.googleapis.com%2Fcss%3Ffamily%3DManrope;" parent="1" vertex="1">
          <mxGeometry x="539" y="730" width="110" height="30" as="geometry" />
        </mxCell>
        <mxCell id="JYd7_30XWuRbHft9SAFf-15" style="edgeStyle=orthogonalEdgeStyle;rounded=0;orthogonalLoop=1;jettySize=auto;html=1;exitX=1;exitY=0.5;exitDx=0;exitDy=0;entryX=0;entryY=0.5;entryDx=0;entryDy=0;fontFamily=Manrope;fontSource=https%3A%2F%2Ffonts.googleapis.com%2Fcss%3Ffamily%3DManrope;" parent="1" source="JYd7_30XWuRbHft9SAFf-16" target="JYd7_30XWuRbHft9SAFf-6" edge="1">
          <mxGeometry relative="1" as="geometry" />
        </mxCell>
        <mxCell id="JYd7_30XWuRbHft9SAFf-16" value="router" style="rounded=1;whiteSpace=wrap;html=1;fillColor=#f5f5f5;fontColor=#333333;strokeColor=#666666;fontFamily=Manrope;fontSource=https%3A%2F%2Ffonts.googleapis.com%2Fcss%3Ffamily%3DManrope;" parent="1" vertex="1">
          <mxGeometry x="30" y="957.5" width="70" height="40" as="geometry" />
        </mxCell>
        <mxCell id="JYd7_30XWuRbHft9SAFf-17" style="edgeStyle=orthogonalEdgeStyle;rounded=0;orthogonalLoop=1;jettySize=auto;html=1;exitX=0.5;exitY=0;exitDx=0;exitDy=0;entryX=0.5;entryY=1;entryDx=0;entryDy=0;fontSize=17;fontFamily=Manrope;fontSource=https%3A%2F%2Ffonts.googleapis.com%2Fcss%3Ffamily%3DManrope;" parent="1" source="JYd7_30XWuRbHft9SAFf-18" target="JYd7_30XWuRbHft9SAFf-20" edge="1">
          <mxGeometry relative="1" as="geometry" />
        </mxCell>
        <mxCell id="JYd7_30XWuRbHft9SAFf-18" value="periodic cache batch reads" style="rounded=1;whiteSpace=wrap;html=1;fillColor=#ffe6cc;strokeColor=#d79b00;fontFamily=Manrope;fontSource=https%3A%2F%2Ffonts.googleapis.com%2Fcss%3Ffamily%3DManrope;" parent="1" vertex="1">
          <mxGeometry x="542.75" y="957.5" width="102.5" height="42.5" as="geometry" />
        </mxCell>
        <mxCell id="JYd7_30XWuRbHft9SAFf-19" style="edgeStyle=orthogonalEdgeStyle;rounded=0;orthogonalLoop=1;jettySize=auto;html=1;exitX=0.5;exitY=0;exitDx=0;exitDy=0;entryX=0.5;entryY=1;entryDx=0;entryDy=0;fontSize=17;fontFamily=Manrope;fontSource=https%3A%2F%2Ffonts.googleapis.com%2Fcss%3Ffamily%3DManrope;" parent="1" source="JYd7_30XWuRbHft9SAFf-20" target="JYd7_30XWuRbHft9SAFf-22" edge="1">
          <mxGeometry relative="1" as="geometry" />
        </mxCell>
        <mxCell id="JYd7_30XWuRbHft9SAFf-20" value="convert to Event(s)" style="rounded=1;whiteSpace=wrap;html=1;fillColor=#ffe6cc;strokeColor=#d79b00;fontFamily=Manrope;fontSource=https%3A%2F%2Ffonts.googleapis.com%2Fcss%3Ffamily%3DManrope;" parent="1" vertex="1">
          <mxGeometry x="541.5" y="887.5" width="105" height="30" as="geometry" />
        </mxCell>
        <mxCell id="JYd7_30XWuRbHft9SAFf-21" style="edgeStyle=orthogonalEdgeStyle;rounded=0;orthogonalLoop=1;jettySize=auto;html=1;exitX=0.5;exitY=0;exitDx=0;exitDy=0;fontSize=17;fontFamily=Manrope;fontSource=https%3A%2F%2Ffonts.googleapis.com%2Fcss%3Ffamily%3DManrope;" parent="1" source="JYd7_30XWuRbHft9SAFf-22" target="JYd7_30XWuRbHft9SAFf-14" edge="1">
          <mxGeometry relative="1" as="geometry" />
        </mxCell>
        <mxCell id="JYd7_30XWuRbHft9SAFf-22" value="apply processors" style="rounded=1;whiteSpace=wrap;html=1;fillColor=#ffe6cc;strokeColor=#d79b00;fontFamily=Manrope;fontSource=https%3A%2F%2Ffonts.googleapis.com%2Fcss%3Ffamily%3DManrope;" parent="1" vertex="1">
          <mxGeometry x="541.5" y="800" width="105" height="30" as="geometry" />
        </mxCell>
        <mxCell id="JYd7_30XWuRbHft9SAFf-23" value="&lt;span style=&quot;font-family: &amp;quot;Nokia Pure Text&amp;quot;;&quot;&gt;&lt;font style=&quot;font-size: 18px;&quot;&gt;&lt;b&gt;gNMIc&lt;/b&gt;&lt;/font&gt;&lt;/span&gt;" style="rounded=1;whiteSpace=wrap;html=1;align=center;verticalAlign=bottom;fillColor=#eeeeee;strokeColor=#36393d;fontFamily=Manrope;fontSource=https%3A%2F%2Ffonts.googleapis.com%2Fcss%3Ffamily%3DManrope;" parent="1" vertex="1">
          <mxGeometry x="149" y="120" width="581" height="390" as="geometry" />
        </mxCell>
        <mxCell id="JYd7_30XWuRbHft9SAFf-24" value="&lt;blockquote style=&quot;margin: 0px 0px 0px 40px; border: none; padding: 0px; font-size: 16px;&quot;&gt;&lt;span style=&quot;white-space: pre&quot;&gt; &lt;/span&gt;InfluxDB Output&lt;br&gt; &amp;nbsp;(cache disabled)&lt;/blockquote&gt;" style="rounded=1;whiteSpace=wrap;html=1;align=left;verticalAlign=top;fillColor=#dae8fc;strokeColor=#6c8ebf;fontFamily=Manrope;fontSource=https%3A%2F%2Ffonts.googleapis.com%2Fcss%3Ffamily%3DManrope;" parent="1" vertex="1">
          <mxGeometry x="343" y="170" width="347" height="310" as="geometry" />
        </mxCell>
        <mxCell id="JYd7_30XWuRbHft9SAFf-25" style="edgeStyle=orthogonalEdgeStyle;rounded=0;orthogonalLoop=1;jettySize=auto;html=1;exitX=1;exitY=0.5;exitDx=0;exitDy=0;entryX=0;entryY=0.5;entryDx=0;entryDy=0;fontFamily=Manrope;fontSource=https%3A%2F%2Ffonts.googleapis.com%2Fcss%3Ffamily%3DManrope;" parent="1" source="JYd7_30XWuRbHft9SAFf-27" target="JYd7_30XWuRbHft9SAFf-31" edge="1">
          <mxGeometry relative="1" as="geometry">
            <Array as="points">
              <mxPoint x="318" y="380" />
              <mxPoint x="318" y="340" />
            </Array>
          </mxGeometry>
        </mxCell>
        <mxCell id="JYd7_30XWuRbHft9SAFf-26" style="edgeStyle=orthogonalEdgeStyle;rounded=0;orthogonalLoop=1;jettySize=auto;html=1;exitX=1;exitY=0.5;exitDx=0;exitDy=0;entryX=0;entryY=0.5;entryDx=0;entryDy=0;fontFamily=Manrope;fontSource=https%3A%2F%2Ffonts.googleapis.com%2Fcss%3Ffamily%3DManrope;" parent="1" source="JYd7_30XWuRbHft9SAFf-27" target="JYd7_30XWuRbHft9SAFf-32" edge="1">
          <mxGeometry relative="1" as="geometry">
            <Array as="points">
              <mxPoint x="318" y="380" />
              <mxPoint x="318" y="410" />
            </Array>
          </mxGeometry>
        </mxCell>
        <mxCell id="JYd7_30XWuRbHft9SAFf-27" value="collector" style="rounded=1;whiteSpace=wrap;html=1;fillColor=#ffe6cc;strokeColor=#d79b00;fontFamily=Manrope;fontSource=https%3A%2F%2Ffonts.googleapis.com%2Fcss%3Ffamily%3DManrope;" parent="1" vertex="1">
          <mxGeometry x="168" y="350" width="120" height="60" as="geometry" />
        </mxCell>
        <mxCell id="JYd7_30XWuRbHft9SAFf-28" style="edgeStyle=orthogonalEdgeStyle;rounded=0;orthogonalLoop=1;jettySize=auto;html=1;exitX=1;exitY=0.5;exitDx=0;exitDy=0;entryX=0;entryY=0.5;entryDx=0;entryDy=0;fontFamily=Manrope;fontSource=https%3A%2F%2Ffonts.googleapis.com%2Fcss%3Ffamily%3DManrope;" parent="1" source="JYd7_30XWuRbHft9SAFf-29" target="JYd7_30XWuRbHft9SAFf-27" edge="1">
          <mxGeometry relative="1" as="geometry" />
        </mxCell>
        <mxCell id="JYd7_30XWuRbHft9SAFf-29" value="router" style="rounded=1;whiteSpace=wrap;html=1;fillColor=#f5f5f5;fontColor=#333333;strokeColor=#666666;fontFamily=Manrope;fontSource=https%3A%2F%2Ffonts.googleapis.com%2Fcss%3Ffamily%3DManrope;" parent="1" vertex="1">
          <mxGeometry x="29" y="330" width="70" height="40" as="geometry" />
        </mxCell>
        <mxCell id="JYd7_30XWuRbHft9SAFf-30" style="edgeStyle=orthogonalEdgeStyle;rounded=0;orthogonalLoop=1;jettySize=auto;html=1;exitX=1;exitY=0.5;exitDx=0;exitDy=0;entryX=0.25;entryY=1;entryDx=0;entryDy=0;fontSize=17;fontFamily=Manrope;fontSource=https%3A%2F%2Ffonts.googleapis.com%2Fcss%3Ffamily%3DManrope;" parent="1" source="JYd7_30XWuRbHft9SAFf-31" target="JYd7_30XWuRbHft9SAFf-39" edge="1">
          <mxGeometry relative="1" as="geometry" />
        </mxCell>
        <mxCell id="JYd7_30XWuRbHft9SAFf-31" value="sub1" style="rounded=0;whiteSpace=wrap;html=1;fillColor=#fff2cc;strokeColor=#d6b656;fontFamily=Manrope;fontSource=https%3A%2F%2Ffonts.googleapis.com%2Fcss%3Ffamily%3DManrope;" parent="1" vertex="1">
          <mxGeometry x="376" y="330" width="50" height="20" as="geometry" />
        </mxCell>
        <mxCell id="JYd7_30XWuRbHft9SAFf-32" value="sub2" style="rounded=0;whiteSpace=wrap;html=1;fillColor=#fff2cc;strokeColor=#d6b656;fontFamily=Manrope;fontSource=https%3A%2F%2Ffonts.googleapis.com%2Fcss%3Ffamily%3DManrope;" parent="1" vertex="1">
          <mxGeometry x="378" y="400" width="50" height="20" as="geometry" />
        </mxCell>
        <mxCell id="JYd7_30XWuRbHft9SAFf-33" style="edgeStyle=orthogonalEdgeStyle;rounded=0;orthogonalLoop=1;jettySize=auto;html=1;exitX=0.5;exitY=0;exitDx=0;exitDy=0;entryX=0.5;entryY=1;entryDx=0;entryDy=0;fontFamily=Manrope;fontSource=https%3A%2F%2Ffonts.googleapis.com%2Fcss%3Ffamily%3DManrope;" parent="1" source="JYd7_30XWuRbHft9SAFf-34" target="JYd7_30XWuRbHft9SAFf-45" edge="1">
          <mxGeometry relative="1" as="geometry">
            <mxPoint x="790" y="550" as="targetPoint" />
          </mxGeometry>
        </mxCell>
        <mxCell id="JYd7_30XWuRbHft9SAFf-34" value="influxDB client" style="rounded=1;whiteSpace=wrap;html=1;fillColor=#f8cecc;strokeColor=#b85450;fontFamily=Manrope;fontSource=https%3A%2F%2Ffonts.googleapis.com%2Fcss%3Ffamily%3DManrope;" parent="1" vertex="1">
          <mxGeometry x="540.25" y="160" width="110" height="30" as="geometry" />
        </mxCell>
        <mxCell id="JYd7_30XWuRbHft9SAFf-35" style="edgeStyle=orthogonalEdgeStyle;rounded=0;orthogonalLoop=1;jettySize=auto;html=1;exitX=1;exitY=0.5;exitDx=0;exitDy=0;entryX=0;entryY=0.5;entryDx=0;entryDy=0;fontFamily=Manrope;fontSource=https%3A%2F%2Ffonts.googleapis.com%2Fcss%3Ffamily%3DManrope;" parent="1" source="JYd7_30XWuRbHft9SAFf-36" target="JYd7_30XWuRbHft9SAFf-27" edge="1">
          <mxGeometry relative="1" as="geometry" />
        </mxCell>
        <mxCell id="JYd7_30XWuRbHft9SAFf-36" value="router" style="rounded=1;whiteSpace=wrap;html=1;fillColor=#f5f5f5;fontColor=#333333;strokeColor=#666666;fontFamily=Manrope;fontSource=https%3A%2F%2Ffonts.googleapis.com%2Fcss%3Ffamily%3DManrope;" parent="1" vertex="1">
          <mxGeometry x="29" y="390" width="70" height="40" as="geometry" />
        </mxCell>
        <mxCell id="JYd7_30XWuRbHft9SAFf-37" style="edgeStyle=orthogonalEdgeStyle;rounded=0;orthogonalLoop=1;jettySize=auto;html=1;exitX=1;exitY=0.5;exitDx=0;exitDy=0;entryX=0.75;entryY=1;entryDx=0;entryDy=0;fontSize=17;fontFamily=Manrope;fontSource=https%3A%2F%2Ffonts.googleapis.com%2Fcss%3Ffamily%3DManrope;" parent="1" source="JYd7_30XWuRbHft9SAFf-32" target="JYd7_30XWuRbHft9SAFf-39" edge="1">
          <mxGeometry relative="1" as="geometry">
            <mxPoint x="668.9999999999998" y="410.25" as="sourcePoint" />
          </mxGeometry>
        </mxCell>
        <mxCell id="JYd7_30XWuRbHft9SAFf-38" style="edgeStyle=orthogonalEdgeStyle;rounded=0;orthogonalLoop=1;jettySize=auto;html=1;exitX=0.5;exitY=0;exitDx=0;exitDy=0;entryX=0.5;entryY=1;entryDx=0;entryDy=0;fontSize=17;fontFamily=Manrope;fontSource=https%3A%2F%2Ffonts.googleapis.com%2Fcss%3Ffamily%3DManrope;" parent="1" source="JYd7_30XWuRbHft9SAFf-39" target="JYd7_30XWuRbHft9SAFf-41" edge="1">
          <mxGeometry relative="1" as="geometry" />
        </mxCell>
        <mxCell id="JYd7_30XWuRbHft9SAFf-39" value="convert to Event(s)" style="rounded=1;whiteSpace=wrap;html=1;fillColor=#ffe6cc;strokeColor=#d79b00;fontFamily=Manrope;fontSource=https%3A%2F%2Ffonts.googleapis.com%2Fcss%3Ffamily%3DManrope;" parent="1" vertex="1">
          <mxGeometry x="542.75" y="290" width="105" height="30" as="geometry" />
        </mxCell>
        <mxCell id="JYd7_30XWuRbHft9SAFf-40" style="edgeStyle=orthogonalEdgeStyle;rounded=0;orthogonalLoop=1;jettySize=auto;html=1;exitX=0.5;exitY=0;exitDx=0;exitDy=0;fontSize=17;fontFamily=Manrope;fontSource=https%3A%2F%2Ffonts.googleapis.com%2Fcss%3Ffamily%3DManrope;" parent="1" source="JYd7_30XWuRbHft9SAFf-41" target="JYd7_30XWuRbHft9SAFf-34" edge="1">
          <mxGeometry relative="1" as="geometry" />
        </mxCell>
        <mxCell id="JYd7_30XWuRbHft9SAFf-41" value="apply processors" style="rounded=1;whiteSpace=wrap;html=1;fillColor=#ffe6cc;strokeColor=#d79b00;fontFamily=Manrope;fontSource=https%3A%2F%2Ffonts.googleapis.com%2Fcss%3Ffamily%3DManrope;" parent="1" vertex="1">
          <mxGeometry x="542.75" y="230" width="105" height="30" as="geometry" />
        </mxCell>
        <mxCell id="JYd7_30XWuRbHft9SAFf-42" value="" style="html=1;shadow=0;dashed=0;align=center;verticalAlign=middle;shape=mxgraph.arrows2.uTurnArrow;dy=3.52;arrowHead=22.5;dx2=15.11;fillColor=#d5e8d4;strokeColor=#82b366;fontFamily=Manrope;fontSource=https%3A%2F%2Ffonts.googleapis.com%2Fcss%3Ffamily%3DManrope;" parent="1" vertex="1">
          <mxGeometry x="510" y="950" width="40" height="50" as="geometry" />
        </mxCell>
        <mxCell id="JYd7_30XWuRbHft9SAFf-43" value="" style="shape=image;verticalLabelPosition=bottom;labelBackgroundColor=#ffffff;verticalAlign=top;aspect=fixed;imageAspect=0;image=data:image/svg+xml,PHN2ZyB4bWxucz0iaHR0cDovL3d3dy53My5vcmcvMjAwMC9zdmciIHhtbG5zOnhsaW5rPSJodHRwOi8vd3d3LnczLm9yZy8xOTk5L3hsaW5rIiB2aWV3Qm94PSIwIDAgNzkgODEiIGZpbGw9IiNmZmYiIGZpbGwtcnVsZT0iZXZlbm9kZCIgc3Ryb2tlPSIjMDAwIiBzdHJva2UtbGluZWNhcD0icm91bmQiIHN0cm9rZS1saW5lam9pbj0icm91bmQiPjx1c2UgeGxpbms6aHJlZj0iI0EiIHg9Ii41IiB5PSIuNSIvPjxzeW1ib2wgaWQ9IkEiIG92ZXJmbG93PSJ2aXNpYmxlIj48ZyBzdHJva2U9Im5vbmUiIGZpbGwtcnVsZT0ibm9uemVybyI+PHBhdGggZD0iTTI0LjY4NiA3Ny4zMTRjLTIuMTEyLTIuODk3LTEuNDQ4LTYuODggMS40NDgtOC45OTIuNjA0LS40MjIgMS4yNjctLjcyNCAxLjkzLS45NjZsLjEyLTIuNDE0Yy0xLjU3LS42NjQtMi44MzYtMi4zNTQtMi45NTctNC4wNDNsLTIuMzU0LS42MDNjLS40MjIuNjAzLS45MDUgMS4wODYtMS41MSAxLjUxLTIuODk3IDIuMTEyLTYuOTQgMS40NDgtOC45OTItMS40NDgtMi4xMTItMi44OTctMS40NDgtNi44OCAxLjQ0OC04Ljk5MnM2Ljg4LTEuNDQ4IDguOTkyIDEuNDQ4Yy41NDMuNzg1Ljk2NiAxLjcgMS4xNDcgMi41OTVsNC4xMDQgMS4wODZjMS4wODYtLjQyMiAyLjI5My0uNDgzIDMuMzgtLjA2bDIuMzU0LTEuN2MtLjYwNC0yLjQ3NC4zNjItNS4yIDIuNDc0LTYuNyAyLjg5Ny0yLjExMiA2Ljk0LTEuNDQ4IDguOTkyIDEuNDQ4IDIuMTEyIDIuODM2IDEuNDQ4IDYuODgtMS40NDggOC45OTItMi4xMTIgMS41MS00Ljk1IDEuNjMtNy4xMi4zMDJsLTIuMzU0IDEuN2MuMDYgMS4xNDctLjM2MiAyLjI5My0xLjA4NiAzLjJsLS4yNCA0LjIyNGMuODQ1LjQ4MyAxLjU3IDEuMDg2IDIuMTEyIDEuODcgMi4wNTIgMi44OTcgMS40NDggNi44OC0xLjQ0OCA4Ljk5Mi0yLjgzNiAyLjExMi02Ljg4IDEuNDQ4LTguOTkyLTEuNDQ4aDB6IiBmaWxsPSIjMDY5MGJhIi8+PHBhdGggZD0iTTMzLjY4IDcwLjc5N2MtLjY2NC0uOTA1LTEuNTctMS41MS0yLjUzNS0xLjc1bC4zNjItNi4xNTZjLjk2Ni0uNzg1IDEuMzI4LTIuMDUyLjkwNS0zLjJsNC4zNDUtMy4xMzhhNC42IDQuNiAwIDAgMCA2LjAzNS40ODNjMi4xMTItMS41MSAyLjUzNS00LjQwNSAxLjAyNi02LjUxOC0xLjUxLTIuMDUyLTQuNDA1LTIuNTM1LTYuNTE4LTEuMDI2LTEuODcgMS4zODgtMi40NzQgMy45MjMtMS4zODggNS45MTRsLTQuNDA1IDMuMTM4Yy0uOTA1LS43ODUtMi4yMzMtLjg0NS0zLjMyLS4xOGwtNS45NzUtMS41N2MuMDYtMS4wMjYtLjI0LTIuMTEyLS44NDUtMi45NTctMS41MS0yLjA1Mi00LjQ2Ni0yLjUzNS02LjUxOC0xLjAyNi0yLjExMiAxLjUxLTIuNTM1IDQuNDA1LTEuMDI2IDYuNTE4czQuNDA2IDIuNTM1IDYuNTE4IDEuMDI2Yy43ODUtLjYwMyAxLjMyOC0xLjMyOCAxLjYzLTIuMTczbDUuMjUgMS4zODhjLS40MjIuODQ1LS4zMDIgMS45My4zMDIgMi43MTYuNjA0Ljg0NSAxLjU3IDEuMjA3IDIuNTM1IDEuMTQ3bC0uMzAyIDUuNDNjLS45MDUgMC0xLjguMzAyLTIuNTk1LjkwNS0yLjA1MiAxLjUxLTIuNTM1IDQuNDA2LTEuMDI2IDYuNTE4czQuNDA2IDIuNTM1IDYuNTE4IDEuMDI2IDIuNTM1LTQuNDA1IDEuMDI2LTYuNTE4aDB6bTQuNzY4LTE5LjY3NGMxLjIwNy0uODQ1IDIuODM2LS42MDQgMy42OC42MDNzLjYwMyAyLjgzNi0uNjAzIDMuNjhjLS45NjYuNzI0LTIuMjkzLjY2NC0zLjItLjA2bC43ODUtLjYwM2MuNTQzLjMwMiAxLjMyOC4zMDIgMS44Ny0uMTIuNzg1LS41NDMuOTY2LTEuNjMuMzYyLTIuNDE0LS41NDMtLjc4NS0xLjYzLS45NjYtMi40MTQtLjM2Mi0uNTQzLjQyMi0uNzg1IDEuMDg2LS42NjQgMS43NWwtLjc4NS42MDNhMi43OCAyLjc4IDAgMCAxIC45NjYtMy4wNzhoMHptLTE5LjE5IDcuNzI1Yy0xLjI2Ny45MDUtMy4wMTcuNjAzLTMuOTIzLS42NjRzLS42MDQtMy4wMTcuNjY0LTMuOTIzIDMuMDE3LS42MDMgMy45MjMuNjAzYy4zMDIuNDIyLjQ4My45MDUuNTQzIDEuMzg4bC0uOTY2LS4yNGMtLjA2LS4xOC0uMTItLjQyMi0uMzAyLS42MDMtLjYwMy0uODQ1LTEuOC0xLjAyNi0yLjY1NS0uNDIycy0xLjAyNiAxLjgtLjQyMiAyLjY1NSAxLjggMS4wMjYgMi42NTUuNDIyYy4yNC0uMTguNDIyLS40MjIuNTQzLS42NjRsLjkwNS4yNGMtLjI0LjQ4My0uNTQzLjkwNS0uOTY2IDEuMjA3aDB6bTguMzkgMTYuMzU1Yy0uOTA1LTEuMjY3LS42MDMtMy4wMTcuNjA0LTMuOTIzLjQyMi0uMzAyLjkwNS0uNDgzIDEuMzg4LS41NDNsLS4wNi45NjZjLS4zMDIuMDYtLjU0My4xMi0uNzg1LjMwMi0uODQ1LjYwMy0xLjAyNiAxLjgtLjQyMiAyLjY1NXMxLjggMS4wMjYgMi42NTUuNDIyIDEuMDI2LTEuOC40MjItMi42NTVjLS4xMi0uMTgtLjMwMi0uMzAyLS40ODMtLjQyMmwuMDYtMS4wMjZhMi43NCAyLjc0IDAgMCAxIDEuMTQ3LjkwNWMuOTA1IDEuMjY3LjYwNCAzLjAxNy0uNjY0IDMuOTIzLTEuMjA3Ljk2Ni0yLjk1Ny42NjQtMy44NjItLjYwM2gweiIgZmlsbD0iI2MzZThmMiIvPjxwYXRoIGQ9Ik03Mi4xMiA2Ny41MzhjLTMuMzggMS4wODYtNy0uNzg1LTguMDg3LTQuMTY0LS4yNC0uNzI0LS4zMDItMS4zODgtLjMwMi0yLjExMmwtMi4yOTMtLjg0NWMtMS4wODYgMS4zMjgtMy4xMzggMS45My00Ljc2OCAxLjUxbC0xLjMyOCAyLjA1MmMuNDIyLjU0My43ODUgMS4yMDcuOTY2IDEuOTMgMS4wODYgMy4zOC0uNzg1IDctNC4xNjQgOC4xNDctMy4zOCAxLjA4Ni03LS43ODUtOC4wODctNC4xNjRzLjc4NS03IDQuMTY0LTguMDg3Yy45MDUtLjMwMiAxLjg3LS4zNjIgMi44MzYtLjI0bDIuMjkzLTMuNTZjLS4wNi0xLjE0Ny4yNC0yLjI5MyAxLjAyNi0zLjJsLS45MDUtMi43NzZjLTIuNTM1LS4xOC00Ljc2OC0xLjk5Mi01LjYxMi00LjQwNS0xLjA4Ni0zLjM4Ljc4NS03IDQuMTY0LTguMDg3czcgLjc4NSA4LjA4NyA0LjE2NGMuNzg1IDIuNDc0IDAgNS4yLTEuOTMgNi44OGwuOTA1IDIuNzc2YzEuMTQ3LjMwMiAyLjExMiAxLjAyNiAyLjcxNiAyLjA1MmwyLjg5NyAxLjM4OGMuNzI0LS42NjQgMi41OTUtMS4wMjYgMy41LTEuMzI4IDMuMzgtMS4wODYgNyAuNzg1IDguMTQ3IDQuMTY0IDEuMDI2IDMuMi0uODQ1IDYuODItNC4yMjQgNy45MDZoMHoiIGZpbGw9IiMwNjkwYmEiLz48cGF0aCBkPSJNNjguNjggNTYuOTc3Yy0xLjAyNi4zNjItMS45MyAxLjAyNi0yLjQ3NCAxLjg3bC01Ljc5NC0yLjIzM2MtLjQyMi0xLjE0Ny0xLjU3LTEuODctMi43NzYtMS44bC0xLjYzLTUuMDdjMi4wNTItMS4wMjYgMy4wNzgtMy4zOCAyLjM1NC01LjYxMi0uNzg1LTIuNDc0LTMuNDQtMy44MDItNS44NTQtMy4wMTdzLTMuODAyIDMuNDQtMy4wMTcgNS44NTRjLjcyNCAyLjIzMyAyLjk1NyAzLjU2IDUuMiAzLjEzOGwxLjYzIDUuMTNhMi42OSAyLjY5IDAgMCAwLTEuMTQ3IDMuMDc4bC0zLjM4IDUuMmMtLjk2Ni0uMzYyLTIuMDUyLS40MjItMy4wNzgtLjEyLTIuNDc0Ljc4NS0zLjgwMiAzLjQ0LTMuMDE3IDUuODU0Ljc4NSAyLjQ3NCAzLjQ0IDMuODAyIDUuODU0IDMuMDE3IDIuNDc0LS43ODUgMy44MDItMy40NCAzLjAxNy01Ljg1NC0uMzAyLS45MDUtLjg0NS0xLjctMS41Ny0yLjIzM2wyLjk1Ny00LjU4N2EyLjc4IDIuNzggMCAwIDAgMi43MTYuNjAzYy45NjYtLjMwMiAxLjYzLTEuMDg2IDEuODctMi4wNTJsNS4wNyAxLjk5MmE0LjY0IDQuNjQgMCAwIDAgLjA2IDIuNzE2Yy43ODUgMi40NzQgMy40NCAzLjgwMiA1Ljg1NCAzLjAxNyAyLjQ3NC0uNzg1IDMuODAyLTMuNDQgMy4wMTctNS44NTQtLjc4NS0yLjQ3NC0zLjM4LTMuODAyLTUuODU0LTMuMDE3aDB6bS0xNy4yLTEwLjYyYy0uNDIyLTEuMzg4LjMwMi0yLjg5NyAxLjctMy4zMiAxLjM4OC0uNDgzIDIuODk3LjMwMiAzLjMyIDEuNy4zNjIgMS4xNDctLjEyIDIuNDE0LTEuMDg2IDMuMDE3bC0uMzAyLS45MDVjLjQ4My0uNDIyLjcyNC0xLjE0Ny40ODMtMS44YTEuNzEgMS43MSAwIDAgMC0zLjI1OSAxLjA4NiAxLjg1IDEuODUgMCAwIDAgMS40NDggMS4yMDdsLjMwMi45NjZjLTEuMTQ3LS4wNi0yLjIzMy0uNzg1LTIuNTk1LTEuOTNoMHptMS4zODggMjAuNjRjLjQ4MyAxLjUxLS4zNjIgMy4wNzgtMS44IDMuNTYtMS41MS40ODMtMy4wNzgtLjM2Mi0zLjU2LTEuOHMuMzYyLTMuMDc4IDEuOC0zLjU2Yy40ODMtLjE4IDEuMDI2LS4xOCAxLjUxLS4wNmwtLjU0My44NDVjLS4xOCAwLS40MjIgMC0uNjY0LjA2LS45NjYuMzAyLTEuNTEgMS4zODgtMS4yMDcgMi40MTQuMzAyLjk2NiAxLjM4OCAxLjUxIDIuNDE0IDEuMjA3Ljk2Ni0uMzAyIDEuNTEtMS4zODggMS4yMDctMi4zNTQtLjEyLS4zMDItLjI0LS41NDMtLjQ4My0uNzI0bC41NDMtLjc4NWMuMzAyLjMwMi42MDMuNzI0Ljc4NSAxLjIwN2gwem0xOC4xMDUtMi44OTdjLTEuNTEuNDgzLTMuMDc4LS4zNjItMy41Ni0xLjgtLjE4LS40ODMtLjE4LTEuMDI2LS4wNi0xLjUxbC45MDUuMzYyYy0uMDYuMzAyLS4wNi42MDMuMDYuODQ1LjMwMiAxLjAyNiAxLjM4OCAxLjUxIDIuNDE0IDEuMjA3czEuNTctMS4zODggMS4yMDctMi40MTRjLS4zMDItLjk2Ni0xLjM4OC0xLjUxLTIuNDE0LTEuMjA3LS4xOC4wNi0uNDIyLjE4LS41NDMuMzAybC0uOTY2LS4zNjJjLjMwMi0uMzYyLjcyNC0uNjY0IDEuMjY3LS44NDUgMS41MS0uNDgzIDMuMDc4LjM2MiAzLjU2IDEuOC40MjIgMS41Ny0uMzYyIDMuMTM4LTEuODcgMy42MmgweiIgZmlsbD0iI2MzZThmMiIvPjxwYXRoIGQ9Ik03NyAxOS45MjJjMCAzLjU2LTIuODk3IDYuNDU3LTYuNDU3IDYuNDU3LS43MjQgMC0xLjQ0OC0uMTItMy4yLS40ODNsLTEuNTEgMS44N2MxLjkzIDEuNTcgMS45MyAzLjY4IDEuMDI2IDUuMTNsMS41MSAxLjg3Yy42NjQtLjI0IDEuMzg4LS4zNjIgMi4xMTItLjM2MiAzLjU2IDAgNi40NTcgMi44OTcgNi40NTcgNi40NTdzLTIuODk3IDYuNDU3LTYuNDU3IDYuNDU3LTYuNDU3LTIuODk3LTYuNDU3LTYuNDU3YzAtLjk2Ni4yNC0xLjkzLjYwMy0yLjc3NmwtMi42NTUtMy4yNmMtMS4xNDctLjMwMi0yLjExMi0uOTY2LTIuNzc2LTEuOTNINTYuM2MtLjg0NSAyLjM1NC0zLjIgMy45MjMtNS43OTQgMy45MjMtMy41NiAwLTYuNDU3LTIuODk3LTYuNDU3LTYuNDU3czIuODk3LTYuNDU3IDYuNDU3LTYuMzk3YTYuNDYgNi40NiAwIDAgMSA1LjkxNCAzLjk4M2gyLjg5N2MuNjY0LS45NjYgMS42My0xLjcgMi43NzYtMS45M2wyLjY1NS0zLjI2Yy0uNDIyLS44NDUtLjYwNC0xLjgtLjYwNC0yLjc3NiAwLTMuNTYgMi44OTctNi40NTcgNi40NTctNi40NTdTNzcgMTYuNDIyIDc3IDE5LjkyMmgweiIgZmlsbD0iIzA2OTBiYSIvPjxwYXRoIGQ9Ik02NS45MDUgMTkuOTIyYzAgMS4wODYuMzYyIDIuMTEyIDEuMDI2IDIuODk3bC0zLjkyMyA0Ljc2OGMtMS4yMDcuMDYtMi4yOTMuOTA1LTIuNTk1IDIuMDUyaC01LjM3Yy0uMzYyLTIuMjMzLTIuMjkzLTMuOTgzLTQuNTg3LTMuOTgzYTQuNjEgNC42MSAwIDAgMC00LjY0NyA0LjY0NyA0LjY1IDQuNjUgMCAwIDAgNC42NDcgNC42NDdjMi4zNTQgMCA0LjI4NS0xLjc1IDQuNjQ3LTMuOTgzaDUuMzdjLjMwMiAxLjE0NyAxLjMyOCAxLjk5MiAyLjU5NSAyLjA1MmwzLjkyMyA0Ljc2OGMtLjY2NC43ODUtMS4wMjYgMS44LTEuMDI2IDIuODk3YTQuNjUgNC42NSAwIDAgMCA0LjY0NyA0LjY0NyA0LjY1IDQuNjUgMCAwIDAgNC42NDctNC42NDcgNC42MSA0LjYxIDAgMCAwLTQuNjQ3LTQuNjQ3IDQuNyA0LjcgMCAwIDAtMi41OTUuNzg1bC0zLjQ0LTQuMjI0Yy44NDUtLjQ4MyAxLjM4OC0xLjM4OCAxLjM4OC0yLjM1NCAwLTEuMDI2LS41NDMtMS45My0xLjM4OC0yLjQxNGwzLjQ0LTQuMjI0YTQuNyA0LjcgMCAwIDAgMi41OTUuNzg1IDQuNjUgNC42NSAwIDAgMCA0LjY0Ny00LjY0NyA0LjY1IDQuNjUgMCAwIDAtNC42NDctNC42NDdjLTIuNTk1LjE4LTQuNzA3IDIuMjkzLTQuNzA3IDQuODI4aDB6bS0xNS4zOSAxMy4wOTZhMi42OCAyLjY4IDAgMCAxLTIuNjU1LTIuNjU1IDIuNjggMi42OCAwIDAgMSAyLjY1NS0yLjY1NWMxLjIwNyAwIDIuMjMzLjg0NSAyLjUzNSAxLjkzaC0uOTY2Yy0uMjQtLjYwMy0uODQ1LTEuMDI2LTEuNTctMS4wMjYtLjk2NiAwLTEuNy43ODUtMS43IDEuNyAwIC45NjYuNzg1IDEuNzUgMS43IDEuNzUuNzI0IDAgMS4zMjgtLjQyMiAxLjU3LTEuMDI2aC45NjZjLS4zMDIgMS4yMDctMS4zMjggMS45OTItMi41MzUgMS45OTJoMHptMjAuMDM2IDUuMDdjMS41NyAwIDIuODM2IDEuMjY3IDIuODM2IDIuODM2cy0xLjI2NyAyLjgzNi0yLjgzNiAyLjgzNi0yLjgzNi0xLjI2Ny0yLjgzNi0yLjgzNmMwLS41NDMuMTgtMS4wMjYuNDIyLTEuNDQ4bC42NjQuNzg1YTIuMTcgMi4xNyAwIDAgMC0uMTIxLjY2NCAxLjg4IDEuODggMCAwIDAgMS44NzEgMS44NzEgMS44OCAxLjg4IDAgMCAwIDEuODcxLTEuODcxIDEuODggMS44OCAwIDAgMC0xLjg3MS0xLjg3MWMtLjMwMiAwLS42MDMuMDYtLjg0NS4xOGwtLjYwNC0uNzI0Yy40MjItLjMwMi45NjYtLjQyMiAxLjQ0OC0uNDIyaDB6bTIuODM2LTE4LjE2NWMwIDEuNTctMS4yNjcgMi44MzYtMi44MzYgMi44MzYtLjU0MyAwLTEuMDI2LS4xMi0xLjQ0OC0uNDIybC42MDQtLjcyNGMuMjQuMTIuNTQzLjE4Ljg0NS4yNGExLjg4IDEuODggMCAwIDAgMS44NzEtMS44NzEgMS44OCAxLjg4IDAgMCAwLTEuODcxLTEuODcxIDEuODggMS44OCAwIDAgMC0xLjg3MSAxLjg3MWMwIC4yNC4wNi40MjIuMTIuNjAzbC0uNjY0Ljc4NWMtLjI0LS40MjItLjQyMi0uOTA1LS40MjItMS40NDggMC0xLjU3IDEuMjY3LTIuODM2IDIuODM2LTIuODM2IDEuNTcuMDYgMi44MzYgMS4yNjcgMi44MzYgMi44MzZoMHoiIGZpbGw9IiNjM2U4ZjIiLz48cGF0aCBkPSJNMzMuMjU2LjMxYTYuNDIgNi40MiAwIDAgMSA0LjEwNCA4LjE0N2MtLjI0LjcyNC0uNTQzIDEuMzI4LTEuMDI2IDEuOTNsMS4zMjggMi4wNTJjMS43LS40MjIgMy42OC4yNCA0Ljc2OCAxLjU3bDIuMjkzLS44NDVjMC0uNzI0LjEyLTEuNDQ4LjMwMi0yLjExMmE2LjQyIDYuNDIgMCAwIDEgOC4xNDctNC4xMDRjMy4zOCAxLjA4NiA1LjI1IDQuNzA3IDQuMTA0IDguMTQ3YTYuNDIgNi40MiAwIDAgMS04LjE0NyA0LjEwNGMtLjkwNS0uMzAyLTEuNzUtLjc4NS0yLjQxNC0xLjQ0OGwtMy45MjMgMS41MWMtLjYwNC45NjYtMS41NyAxLjc1LTIuNzE2IDIuMDUybC0uOTA1IDIuNzc2YzEuOTMgMS43IDIuNzE2IDQuNDA2IDEuOTMgNi44OGE2LjQyIDYuNDIgMCAwIDEtOC4xNDcgNC4xMDRjLTMuMzItMS4yNjctNS4yLTQuODg4LTQuMTA0LTguMjY4Ljc4NS0yLjQ3NCAzLjA3OC00LjIyNCA1LjYxMi00LjQwNWwuOTA1LTIuNzc2Yy0uNzI0LS45MDUtMS4wODYtMi4wNTItLjk2Ni0zLjI2TDMyLjExIDEyLjhjLS45NjYuMTItMS45My4wNi0yLjgzNi0uMjQtMy4zOC0xLjA4Ni01LjI1LTQuNzA3LTQuMTY0LTguMDg3IDEuMTQ3LTMuMzggNC43NjgtNS4yNSA4LjE0Ny00LjE2NGgweiIgZmlsbD0iIzA2OTBiYSIvPjxwYXRoIGQ9Ik0yOS44MTcgMTAuODdjMS4wMjYuMzYyIDIuMTEyLjMwMiAzLjA3OC0uMDZsMy4zMiA1LjJjLS4zNjIgMS4yMDcuMTggMi40MTQgMS4xNDcgMy4wNzhsLTEuNyA1LjA3Yy0yLjIzMy0uMzYyLTQuNDY2LjkwNS01LjIgMy4xMzgtLjc4NSAyLjQ3NC41NDMgNS4wNyAyLjk1NyA1LjkxNCAyLjQxNC43ODUgNS4wNy0uNTQzIDUuOTE0LTIuOTU3LjcyNC0yLjIzMy0uMzAyLTQuNTg3LTIuMzU0LTUuNjEybDEuNy01LjA3YzEuMjA3LjA2IDIuMzU0LS42NjQgMi43NzYtMS44bDUuNzk0LTIuMjMzYy41NDMuODQ1IDEuMzg4IDEuNTcgMi40NzQgMS44NyAyLjQ3NC43ODUgNS4wNy0uNTQzIDUuOTE0LTMuMDE3Ljc4NS0yLjQ3NC0uNTQzLTUuMDctMy4wMTctNS45MTQtMi40NzQtLjc4NS01LjA3LjU0My01LjkxNCAyLjk1N2E0LjY0IDQuNjQgMCAwIDAtLjA2IDIuNzE2bC01LjA3IDEuOTkyYy0uMTgtLjkwNS0uODQ1LTEuNzUtMS44LTIuMDUyYTIuOTEgMi45MSAwIDAgMC0yLjcxNi41NDNMMzQuMSAxMC4wMjVjLjcyNC0uNTQzIDEuMjY3LTEuMzI4IDEuNTctMi4yMzMuNzg1LTIuNDc0LS41NDMtNS4wNy0zLjAxNy01Ljg1NHMtNS4wNy41NDMtNS44NTQgMy4wMTcuNTQzIDUuMTMgMy4wMTcgNS45MTRoMHptNy42NjQgMTguNzdjLS40ODMgMS4zODgtMS45MyAyLjE3My0zLjMyIDEuN3MtMi4xNzMtMS45My0xLjctMy4zMmMuMzYyLTEuMTQ3IDEuNTEtMS44NyAyLjY1NS0xLjhsLS4zMDIuOTA1Yy0uNjY0LjA2LTEuMjA3LjU0My0xLjQ0OCAxLjE0N2ExLjcxIDEuNzEgMCAwIDAgMy4yNTkgMS4wODZjLjI0LS42NjQgMC0xLjM4OC0uNDgzLTEuOGwuMzAyLS45NjZjLjk2Ni42NjQgMS40NDggMS44NyAxLjAyNiAzLjA3OGgwem0xMC45ODQtMTcuNTYyYy40ODMtMS41MSAyLjA1Mi0yLjI5MyAzLjU2LTEuOCAxLjQ0OC40ODMgMi4yOTMgMi4xMTIgMS44IDMuNTZzLTIuMDUyIDIuMjkzLTMuNTYgMS44Yy0uNDgzLS4xOC0uOTA1LS40ODMtMS4yMDctLjg0NWwuOTY2LS4zNjJjLjE4LjEyLjM2Mi4yNC42MDMuMzAyLjk2Ni4zMDIgMi4wNTItLjI0IDIuMzU0LTEuMjA3cy0uMjQtMi4wNTItMS4yMDctMi4zNTQtMi4wNTIuMjQtMi40MTQgMS4yMDdjLS4wNi4zMDItLjEyLjYwMy0uMDYuODQ1bC0uOTA1LjM2MmMtLjA2LS40ODMtLjA2LTEuMDI2LjA2LTEuNTFoMHpNMzIuMSAzLjc1YzEuNTEuNDgzIDIuMjkzIDIuMDUyIDEuOCAzLjU2LS4xOC40ODMtLjQyMi45MDUtLjg0NSAxLjI2N2wtLjQ4My0uNzg1YTIuMTcgMi4xNyAwIDAgMCAuNDgzLS43MjRjLjMwMi0xLjAyNi0uMjQtMi4wNTItMS4yMDctMi40MTQtLjk2Ni0uMzAyLTIuMDUyLjI0LTIuNDE0IDEuMjA3LS4zMDIuOTY2LjI0IDIuMDUyIDEuMjA3IDIuMzU0LjE4LjA2LjQyMi4xMi42MDQuMDZsLjU0My44NDVjLS40ODMuMTItLjk2Ni4xMi0xLjUxLS4wNi0xLjUxLS40ODMtMi4yOTMtMi4wNTItMS44LTMuNTYuNTQzLTEuMzg4IDIuMTczLTIuMjMzIDMuNjItMS43NWgweiIgZmlsbD0iI2MzZThmMiIvPjxwYXRoIGQ9Ik0xMC4yMDMgMzQuMjg1Yy42MDMuNDIyIDEuMDg2Ljk2NiAxLjUxIDEuNTdsMi4zNTQtLjYwM2MuMTItMS43IDEuMzg4LTMuNDQgMi45NTctNC4wNDNsLS4xMi0yLjQxNGMtLjY2NC0uMTgtMS4zMjgtLjU0My0xLjkzLS45NjYtMi44MzYtMi4xNzMtMy41LTYuMjE2LTEuMzg4LTkuMTEzczYuMDk1LTMuNSA4Ljk5Mi0xLjM4OGMyLjgzNiAyLjExMiAzLjUgNi4wOTUgMS4zODggOC45OTItLjU0My43ODUtMS4yNjcgMS4zODgtMi4xMTIgMS44N2wuMjQgNC4yMjRjLjcyNC45MDUgMS4xNDcgMi4wNTIgMS4wODYgMy4ybDIuMzU0IDEuN2MyLjE3My0xLjMyOCA1LjAxLTEuMjA3IDcuMTIuMzAyIDIuODk3IDIuMTEyIDMuNSA2LjE1NiAxLjM4OCA4Ljk5Mi0yLjA1MiAyLjg5Ny02LjA5NSAzLjUtOC45OTIgMS40NDgtMi4xMTItMS41MS0zLjA3OC00LjIyNC0yLjQ3NC02LjdsLTIuMzU0LTEuN2MtMS4wODYuNDIyLTIuMjkzLjQyMi0zLjM4LS4wNmwtNC4xMDQgMS4wODZjLS4xOC45NjYtLjU0MyAxLjg3LTEuMTQ3IDIuNTk1LTIuMDUyIDIuODM2LTYuMDM1IDMuNS04LjkzMiAxLjM4OC0yLjg5Ny0yLjA1Mi0zLjUtNi4wOTUtMS40NDgtOC45OTIgMi4xMTItMi44OTcgNi4wOTUtMy41IDguOTkyLTEuMzg4eiIgZmlsbD0iIzA2OTBiYSIvPjxwYXRoIGQ9Ik0xMC4yMDMgNDIuMjUyYy42NjQtLjkwNS45NjYtMS45My45MDUtMi45NTdsNS45NzUtMS41N2EyLjgxIDIuODEgMCAwIDAgMy4zMTktLjE4MWw0LjM0NSAzLjEzOGMtMS4wMjYgMS45OTItLjQ4MyA0LjUyNiAxLjM4OCA1LjkxNCAyLjExMiAxLjUxIDUuMDEgMS4wODYgNi41MTgtMS4wMjYgMS41MS0yLjA1MiAxLjA4Ni01LjAxLTEuMDI2LTYuNTE4LTEuODctMS4zODgtNC40NjYtMS4xNDctNi4wOTUuNDgzbC00LjM0NS0zLjEzOGMuNDIyLTEuMDg2LjEyLTIuNDE0LS44NDUtMy4ybC0uMzYyLTYuMTU2YTQuMTcgNC4xNyAwIDAgMCAyLjUzNS0xLjc1YzEuNTEtMi4xMTIgMS4wMjYtNS4wMS0xLjAyNi02LjUxOHMtNS4wMS0xLjA4Ni02LjUxOCAxLjAyNmMtMS41MSAyLjA1Mi0xLjA4NiA1LjAxIDEuMDI2IDYuNTE4Ljc4NS41NDMgMS43Ljg0NSAyLjU5NS45MDVsLjMwMiA1LjQzYy0uOTY2LS4xMi0xLjkzLjMwMi0yLjUzNSAxLjE0N2EyLjc3IDIuNzcgMCAwIDAtLjMwMiAyLjcxNmwtNS4yNSAxLjM4OGMtLjMwMi0uODQ1LS44NDUtMS42My0xLjYzLTIuMTczLTIuMTEyLTEuNTEtNS4wMS0xLjAyNi02LjUxOCAxLjAyNnMtMS4wODYgNS4wMSAxLjAyNiA2LjUxOCA1LjAxIDEuMDI2IDYuNTE4LTEuMDI2aDB6bTIwLjIxNy0xLjU3YzEuMjA3Ljg0NSAxLjQ0OCAyLjUzNS42MDMgMy42OC0uODQ1IDEuMjA3LTIuNTM1IDEuNDQ4LTMuNjguNjA0LS45NjYtLjcyNC0xLjMyOC0xLjk5Mi0uOTA1LTMuMDc4bC43ODUuNjA0Yy0uMTIuNjY0LjEyIDEuMzI4LjY2NCAxLjc1Ljc4NS41NDMgMS44Ny4zNjIgMi40MTQtLjM2Mi41NDMtLjc4NS40MjItMS44Ny0uMzYyLTIuNDE0LS41NDMtLjQyMi0xLjMyOC0uNDIyLTEuODctLjEybC0uOTA1LS42MDNjLjk2Ni0uNzI0IDIuMjMzLS43ODUgMy4yNi0uMDZoMHpNMTcuMDgyIDI0LjgxYy0xLjI2Ny0uOTA1LTEuNTEtMi43MTYtLjYwNC0zLjkyMy45MDUtMS4yNjcgMi43MTYtMS41MSAzLjkyMy0uNjAzIDEuMjY3LjkwNSAxLjU3IDIuNzE2LjYwNCAzLjkyM2EyLjc0IDIuNzQgMCAwIDEtMS4xNDcuOTA1bC0uMDYtMS4wMjZjLjE4LS4xMi4zNjItLjI0LjQ4My0uNDIyLjYwMy0uODQ1LjQyMi0yLjA1Mi0uNDIyLTIuNjU1cy0yLjA1Mi0uNDIyLTIuNjU1LjQyMi0uNDIyIDIuMDUyLjQyMiAyLjY1NWMuMjQuMTguNTQzLjMwMi43ODUuMzAybC4wNi45NjZjLS40MjItLjA2LS45MDUtLjI0LTEuMzg4LS41NDNoMHpNNC4xNjggMzcuODQ2Yy45MDUtMS4yNjcgMi43MTYtMS41NyAzLjkyMy0uNjAzLjQyMi4zMDIuNzI0LjcyNC45NjYgMS4xNDdsLS45NjYuMjRjLS4xMi0uMjQtLjMwMi0uNDgzLS41NDMtLjY2NC0uODQ1LS42MDMtMi4wNTItLjQyMi0yLjY1NS40MjJzLS40MjIgMi4wNTIuNDIyIDIuNjU1IDIuMDUyLjQyMiAyLjY1NS0uNDIyYy4xMi0uMTguMjQtLjM2Mi4zMDItLjYwM2wxLjAyNi0uMjRjLS4wNi40ODMtLjE4Ljk2Ni0uNTQzIDEuMzg4LS45MDUgMS4yNjctMi42NTUgMS41MS0zLjkyMy42MDMtMS4zMjgtLjkwNS0xLjU3LTIuNzE2LS42NjQtMy45MjNoMHoiIGZpbGw9IiNjM2U4ZjIiLz48L2c+PC9zeW1ib2w+PC9zdmc+;fontFamily=Manrope;fontSource=https%3A%2F%2Ffonts.googleapis.com%2Fcss%3Ffamily%3DManrope;" parent="1" vertex="1">
          <mxGeometry x="575.56" y="600" width="37.38" height="38.33" as="geometry" />
        </mxCell>
        <mxCell id="JYd7_30XWuRbHft9SAFf-44" value="&lt;font style=&quot;font-size: 12px&quot; color=&quot;#000000&quot;&gt;&lt;span style=&quot;font-size: 12px&quot;&gt;InfluxDB&lt;/span&gt;&lt;/font&gt;" style="text;html=1;resizable=0;points=[];autosize=1;align=center;verticalAlign=middle;spacingTop=-4;fontSize=12;fontFamily=Manrope;fontColor=#001135;fontSource=https%3A%2F%2Ffonts.googleapis.com%2Fcss%3Ffamily%3DManrope;" parent="1" vertex="1">
          <mxGeometry x="564.2450000000003" y="580" width="60" height="20" as="geometry" />
        </mxCell>
        <mxCell id="JYd7_30XWuRbHft9SAFf-45" value="" style="shape=image;verticalLabelPosition=bottom;labelBackgroundColor=#ffffff;verticalAlign=top;aspect=fixed;imageAspect=0;image=data:image/svg+xml,PHN2ZyB4bWxucz0iaHR0cDovL3d3dy53My5vcmcvMjAwMC9zdmciIHhtbG5zOnhsaW5rPSJodHRwOi8vd3d3LnczLm9yZy8xOTk5L3hsaW5rIiB2aWV3Qm94PSIwIDAgNzkgODEiIGZpbGw9IiNmZmYiIGZpbGwtcnVsZT0iZXZlbm9kZCIgc3Ryb2tlPSIjMDAwIiBzdHJva2UtbGluZWNhcD0icm91bmQiIHN0cm9rZS1saW5lam9pbj0icm91bmQiPjx1c2UgeGxpbms6aHJlZj0iI0EiIHg9Ii41IiB5PSIuNSIvPjxzeW1ib2wgaWQ9IkEiIG92ZXJmbG93PSJ2aXNpYmxlIj48ZyBzdHJva2U9Im5vbmUiIGZpbGwtcnVsZT0ibm9uemVybyI+PHBhdGggZD0iTTI0LjY4NiA3Ny4zMTRjLTIuMTEyLTIuODk3LTEuNDQ4LTYuODggMS40NDgtOC45OTIuNjA0LS40MjIgMS4yNjctLjcyNCAxLjkzLS45NjZsLjEyLTIuNDE0Yy0xLjU3LS42NjQtMi44MzYtMi4zNTQtMi45NTctNC4wNDNsLTIuMzU0LS42MDNjLS40MjIuNjAzLS45MDUgMS4wODYtMS41MSAxLjUxLTIuODk3IDIuMTEyLTYuOTQgMS40NDgtOC45OTItMS40NDgtMi4xMTItMi44OTctMS40NDgtNi44OCAxLjQ0OC04Ljk5MnM2Ljg4LTEuNDQ4IDguOTkyIDEuNDQ4Yy41NDMuNzg1Ljk2NiAxLjcgMS4xNDcgMi41OTVsNC4xMDQgMS4wODZjMS4wODYtLjQyMiAyLjI5My0uNDgzIDMuMzgtLjA2bDIuMzU0LTEuN2MtLjYwNC0yLjQ3NC4zNjItNS4yIDIuNDc0LTYuNyAyLjg5Ny0yLjExMiA2Ljk0LTEuNDQ4IDguOTkyIDEuNDQ4IDIuMTEyIDIuODM2IDEuNDQ4IDYuODgtMS40NDggOC45OTItMi4xMTIgMS41MS00Ljk1IDEuNjMtNy4xMi4zMDJsLTIuMzU0IDEuN2MuMDYgMS4xNDctLjM2MiAyLjI5My0xLjA4NiAzLjJsLS4yNCA0LjIyNGMuODQ1LjQ4MyAxLjU3IDEuMDg2IDIuMTEyIDEuODcgMi4wNTIgMi44OTcgMS40NDggNi44OC0xLjQ0OCA4Ljk5Mi0yLjgzNiAyLjExMi02Ljg4IDEuNDQ4LTguOTkyLTEuNDQ4aDB6IiBmaWxsPSIjMDY5MGJhIi8+PHBhdGggZD0iTTMzLjY4IDcwLjc5N2MtLjY2NC0uOTA1LTEuNTctMS41MS0yLjUzNS0xLjc1bC4zNjItNi4xNTZjLjk2Ni0uNzg1IDEuMzI4LTIuMDUyLjkwNS0zLjJsNC4zNDUtMy4xMzhhNC42IDQuNiAwIDAgMCA2LjAzNS40ODNjMi4xMTItMS41MSAyLjUzNS00LjQwNSAxLjAyNi02LjUxOC0xLjUxLTIuMDUyLTQuNDA1LTIuNTM1LTYuNTE4LTEuMDI2LTEuODcgMS4zODgtMi40NzQgMy45MjMtMS4zODggNS45MTRsLTQuNDA1IDMuMTM4Yy0uOTA1LS43ODUtMi4yMzMtLjg0NS0zLjMyLS4xOGwtNS45NzUtMS41N2MuMDYtMS4wMjYtLjI0LTIuMTEyLS44NDUtMi45NTctMS41MS0yLjA1Mi00LjQ2Ni0yLjUzNS02LjUxOC0xLjAyNi0yLjExMiAxLjUxLTIuNTM1IDQuNDA1LTEuMDI2IDYuNTE4czQuNDA2IDIuNTM1IDYuNTE4IDEuMDI2Yy43ODUtLjYwMyAxLjMyOC0xLjMyOCAxLjYzLTIuMTczbDUuMjUgMS4zODhjLS40MjIuODQ1LS4zMDIgMS45My4zMDIgMi43MTYuNjA0Ljg0NSAxLjU3IDEuMjA3IDIuNTM1IDEuMTQ3bC0uMzAyIDUuNDNjLS45MDUgMC0xLjguMzAyLTIuNTk1LjkwNS0yLjA1MiAxLjUxLTIuNTM1IDQuNDA2LTEuMDI2IDYuNTE4czQuNDA2IDIuNTM1IDYuNTE4IDEuMDI2IDIuNTM1LTQuNDA1IDEuMDI2LTYuNTE4aDB6bTQuNzY4LTE5LjY3NGMxLjIwNy0uODQ1IDIuODM2LS42MDQgMy42OC42MDNzLjYwMyAyLjgzNi0uNjAzIDMuNjhjLS45NjYuNzI0LTIuMjkzLjY2NC0zLjItLjA2bC43ODUtLjYwM2MuNTQzLjMwMiAxLjMyOC4zMDIgMS44Ny0uMTIuNzg1LS41NDMuOTY2LTEuNjMuMzYyLTIuNDE0LS41NDMtLjc4NS0xLjYzLS45NjYtMi40MTQtLjM2Mi0uNTQzLjQyMi0uNzg1IDEuMDg2LS42NjQgMS43NWwtLjc4NS42MDNhMi43OCAyLjc4IDAgMCAxIC45NjYtMy4wNzhoMHptLTE5LjE5IDcuNzI1Yy0xLjI2Ny45MDUtMy4wMTcuNjAzLTMuOTIzLS42NjRzLS42MDQtMy4wMTcuNjY0LTMuOTIzIDMuMDE3LS42MDMgMy45MjMuNjAzYy4zMDIuNDIyLjQ4My45MDUuNTQzIDEuMzg4bC0uOTY2LS4yNGMtLjA2LS4xOC0uMTItLjQyMi0uMzAyLS42MDMtLjYwMy0uODQ1LTEuOC0xLjAyNi0yLjY1NS0uNDIycy0xLjAyNiAxLjgtLjQyMiAyLjY1NSAxLjggMS4wMjYgMi42NTUuNDIyYy4yNC0uMTguNDIyLS40MjIuNTQzLS42NjRsLjkwNS4yNGMtLjI0LjQ4My0uNTQzLjkwNS0uOTY2IDEuMjA3aDB6bTguMzkgMTYuMzU1Yy0uOTA1LTEuMjY3LS42MDMtMy4wMTcuNjA0LTMuOTIzLjQyMi0uMzAyLjkwNS0uNDgzIDEuMzg4LS41NDNsLS4wNi45NjZjLS4zMDIuMDYtLjU0My4xMi0uNzg1LjMwMi0uODQ1LjYwMy0xLjAyNiAxLjgtLjQyMiAyLjY1NXMxLjggMS4wMjYgMi42NTUuNDIyIDEuMDI2LTEuOC40MjItMi42NTVjLS4xMi0uMTgtLjMwMi0uMzAyLS40ODMtLjQyMmwuMDYtMS4wMjZhMi43NCAyLjc0IDAgMCAxIDEuMTQ3LjkwNWMuOTA1IDEuMjY3LjYwNCAzLjAxNy0uNjY0IDMuOTIzLTEuMjA3Ljk2Ni0yLjk1Ny42NjQtMy44NjItLjYwM2gweiIgZmlsbD0iI2MzZThmMiIvPjxwYXRoIGQ9Ik03Mi4xMiA2Ny41MzhjLTMuMzggMS4wODYtNy0uNzg1LTguMDg3LTQuMTY0LS4yNC0uNzI0LS4zMDItMS4zODgtLjMwMi0yLjExMmwtMi4yOTMtLjg0NWMtMS4wODYgMS4zMjgtMy4xMzggMS45My00Ljc2OCAxLjUxbC0xLjMyOCAyLjA1MmMuNDIyLjU0My43ODUgMS4yMDcuOTY2IDEuOTMgMS4wODYgMy4zOC0uNzg1IDctNC4xNjQgOC4xNDctMy4zOCAxLjA4Ni03LS43ODUtOC4wODctNC4xNjRzLjc4NS03IDQuMTY0LTguMDg3Yy45MDUtLjMwMiAxLjg3LS4zNjIgMi44MzYtLjI0bDIuMjkzLTMuNTZjLS4wNi0xLjE0Ny4yNC0yLjI5MyAxLjAyNi0zLjJsLS45MDUtMi43NzZjLTIuNTM1LS4xOC00Ljc2OC0xLjk5Mi01LjYxMi00LjQwNS0xLjA4Ni0zLjM4Ljc4NS03IDQuMTY0LTguMDg3czcgLjc4NSA4LjA4NyA0LjE2NGMuNzg1IDIuNDc0IDAgNS4yLTEuOTMgNi44OGwuOTA1IDIuNzc2YzEuMTQ3LjMwMiAyLjExMiAxLjAyNiAyLjcxNiAyLjA1MmwyLjg5NyAxLjM4OGMuNzI0LS42NjQgMi41OTUtMS4wMjYgMy41LTEuMzI4IDMuMzgtMS4wODYgNyAuNzg1IDguMTQ3IDQuMTY0IDEuMDI2IDMuMi0uODQ1IDYuODItNC4yMjQgNy45MDZoMHoiIGZpbGw9IiMwNjkwYmEiLz48cGF0aCBkPSJNNjguNjggNTYuOTc3Yy0xLjAyNi4zNjItMS45MyAxLjAyNi0yLjQ3NCAxLjg3bC01Ljc5NC0yLjIzM2MtLjQyMi0xLjE0Ny0xLjU3LTEuODctMi43NzYtMS44bC0xLjYzLTUuMDdjMi4wNTItMS4wMjYgMy4wNzgtMy4zOCAyLjM1NC01LjYxMi0uNzg1LTIuNDc0LTMuNDQtMy44MDItNS44NTQtMy4wMTdzLTMuODAyIDMuNDQtMy4wMTcgNS44NTRjLjcyNCAyLjIzMyAyLjk1NyAzLjU2IDUuMiAzLjEzOGwxLjYzIDUuMTNhMi42OSAyLjY5IDAgMCAwLTEuMTQ3IDMuMDc4bC0zLjM4IDUuMmMtLjk2Ni0uMzYyLTIuMDUyLS40MjItMy4wNzgtLjEyLTIuNDc0Ljc4NS0zLjgwMiAzLjQ0LTMuMDE3IDUuODU0Ljc4NSAyLjQ3NCAzLjQ0IDMuODAyIDUuODU0IDMuMDE3IDIuNDc0LS43ODUgMy44MDItMy40NCAzLjAxNy01Ljg1NC0uMzAyLS45MDUtLjg0NS0xLjctMS41Ny0yLjIzM2wyLjk1Ny00LjU4N2EyLjc4IDIuNzggMCAwIDAgMi43MTYuNjAzYy45NjYtLjMwMiAxLjYzLTEuMDg2IDEuODctMi4wNTJsNS4wNyAxLjk5MmE0LjY0IDQuNjQgMCAwIDAgLjA2IDIuNzE2Yy43ODUgMi40NzQgMy40NCAzLjgwMiA1Ljg1NCAzLjAxNyAyLjQ3NC0uNzg1IDMuODAyLTMuNDQgMy4wMTctNS44NTQtLjc4NS0yLjQ3NC0zLjM4LTMuODAyLTUuODU0LTMuMDE3aDB6bS0xNy4yLTEwLjYyYy0uNDIyLTEuMzg4LjMwMi0yLjg5NyAxLjctMy4zMiAxLjM4OC0uNDgzIDIuODk3LjMwMiAzLjMyIDEuNy4zNjIgMS4xNDctLjEyIDIuNDE0LTEuMDg2IDMuMDE3bC0uMzAyLS45MDVjLjQ4My0uNDIyLjcyNC0xLjE0Ny40ODMtMS44YTEuNzEgMS43MSAwIDAgMC0zLjI1OSAxLjA4NiAxLjg1IDEuODUgMCAwIDAgMS40NDggMS4yMDdsLjMwMi45NjZjLTEuMTQ3LS4wNi0yLjIzMy0uNzg1LTIuNTk1LTEuOTNoMHptMS4zODggMjAuNjRjLjQ4MyAxLjUxLS4zNjIgMy4wNzgtMS44IDMuNTYtMS41MS40ODMtMy4wNzgtLjM2Mi0zLjU2LTEuOHMuMzYyLTMuMDc4IDEuOC0zLjU2Yy40ODMtLjE4IDEuMDI2LS4xOCAxLjUxLS4wNmwtLjU0My44NDVjLS4xOCAwLS40MjIgMC0uNjY0LjA2LS45NjYuMzAyLTEuNTEgMS4zODgtMS4yMDcgMi40MTQuMzAyLjk2NiAxLjM4OCAxLjUxIDIuNDE0IDEuMjA3Ljk2Ni0uMzAyIDEuNTEtMS4zODggMS4yMDctMi4zNTQtLjEyLS4zMDItLjI0LS41NDMtLjQ4My0uNzI0bC41NDMtLjc4NWMuMzAyLjMwMi42MDMuNzI0Ljc4NSAxLjIwN2gwem0xOC4xMDUtMi44OTdjLTEuNTEuNDgzLTMuMDc4LS4zNjItMy41Ni0xLjgtLjE4LS40ODMtLjE4LTEuMDI2LS4wNi0xLjUxbC45MDUuMzYyYy0uMDYuMzAyLS4wNi42MDMuMDYuODQ1LjMwMiAxLjAyNiAxLjM4OCAxLjUxIDIuNDE0IDEuMjA3czEuNTctMS4zODggMS4yMDctMi40MTRjLS4zMDItLjk2Ni0xLjM4OC0xLjUxLTIuNDE0LTEuMjA3LS4xOC4wNi0uNDIyLjE4LS41NDMuMzAybC0uOTY2LS4zNjJjLjMwMi0uMzYyLjcyNC0uNjY0IDEuMjY3LS44NDUgMS41MS0uNDgzIDMuMDc4LjM2MiAzLjU2IDEuOC40MjIgMS41Ny0uMzYyIDMuMTM4LTEuODcgMy42MmgweiIgZmlsbD0iI2MzZThmMiIvPjxwYXRoIGQ9Ik03NyAxOS45MjJjMCAzLjU2LTIuODk3IDYuNDU3LTYuNDU3IDYuNDU3LS43MjQgMC0xLjQ0OC0uMTItMy4yLS40ODNsLTEuNTEgMS44N2MxLjkzIDEuNTcgMS45MyAzLjY4IDEuMDI2IDUuMTNsMS41MSAxLjg3Yy42NjQtLjI0IDEuMzg4LS4zNjIgMi4xMTItLjM2MiAzLjU2IDAgNi40NTcgMi44OTcgNi40NTcgNi40NTdzLTIuODk3IDYuNDU3LTYuNDU3IDYuNDU3LTYuNDU3LTIuODk3LTYuNDU3LTYuNDU3YzAtLjk2Ni4yNC0xLjkzLjYwMy0yLjc3NmwtMi42NTUtMy4yNmMtMS4xNDctLjMwMi0yLjExMi0uOTY2LTIuNzc2LTEuOTNINTYuM2MtLjg0NSAyLjM1NC0zLjIgMy45MjMtNS43OTQgMy45MjMtMy41NiAwLTYuNDU3LTIuODk3LTYuNDU3LTYuNDU3czIuODk3LTYuNDU3IDYuNDU3LTYuMzk3YTYuNDYgNi40NiAwIDAgMSA1LjkxNCAzLjk4M2gyLjg5N2MuNjY0LS45NjYgMS42My0xLjcgMi43NzYtMS45M2wyLjY1NS0zLjI2Yy0uNDIyLS44NDUtLjYwNC0xLjgtLjYwNC0yLjc3NiAwLTMuNTYgMi44OTctNi40NTcgNi40NTctNi40NTdTNzcgMTYuNDIyIDc3IDE5LjkyMmgweiIgZmlsbD0iIzA2OTBiYSIvPjxwYXRoIGQ9Ik02NS45MDUgMTkuOTIyYzAgMS4wODYuMzYyIDIuMTEyIDEuMDI2IDIuODk3bC0zLjkyMyA0Ljc2OGMtMS4yMDcuMDYtMi4yOTMuOTA1LTIuNTk1IDIuMDUyaC01LjM3Yy0uMzYyLTIuMjMzLTIuMjkzLTMuOTgzLTQuNTg3LTMuOTgzYTQuNjEgNC42MSAwIDAgMC00LjY0NyA0LjY0NyA0LjY1IDQuNjUgMCAwIDAgNC42NDcgNC42NDdjMi4zNTQgMCA0LjI4NS0xLjc1IDQuNjQ3LTMuOTgzaDUuMzdjLjMwMiAxLjE0NyAxLjMyOCAxLjk5MiAyLjU5NSAyLjA1MmwzLjkyMyA0Ljc2OGMtLjY2NC43ODUtMS4wMjYgMS44LTEuMDI2IDIuODk3YTQuNjUgNC42NSAwIDAgMCA0LjY0NyA0LjY0NyA0LjY1IDQuNjUgMCAwIDAgNC42NDctNC42NDcgNC42MSA0LjYxIDAgMCAwLTQuNjQ3LTQuNjQ3IDQuNyA0LjcgMCAwIDAtMi41OTUuNzg1bC0zLjQ0LTQuMjI0Yy44NDUtLjQ4MyAxLjM4OC0xLjM4OCAxLjM4OC0yLjM1NCAwLTEuMDI2LS41NDMtMS45My0xLjM4OC0yLjQxNGwzLjQ0LTQuMjI0YTQuNyA0LjcgMCAwIDAgMi41OTUuNzg1IDQuNjUgNC42NSAwIDAgMCA0LjY0Ny00LjY0NyA0LjY1IDQuNjUgMCAwIDAtNC42NDctNC42NDdjLTIuNTk1LjE4LTQuNzA3IDIuMjkzLTQuNzA3IDQuODI4aDB6bS0xNS4zOSAxMy4wOTZhMi42OCAyLjY4IDAgMCAxLTIuNjU1LTIuNjU1IDIuNjggMi42OCAwIDAgMSAyLjY1NS0yLjY1NWMxLjIwNyAwIDIuMjMzLjg0NSAyLjUzNSAxLjkzaC0uOTY2Yy0uMjQtLjYwMy0uODQ1LTEuMDI2LTEuNTctMS4wMjYtLjk2NiAwLTEuNy43ODUtMS43IDEuNyAwIC45NjYuNzg1IDEuNzUgMS43IDEuNzUuNzI0IDAgMS4zMjgtLjQyMiAxLjU3LTEuMDI2aC45NjZjLS4zMDIgMS4yMDctMS4zMjggMS45OTItMi41MzUgMS45OTJoMHptMjAuMDM2IDUuMDdjMS41NyAwIDIuODM2IDEuMjY3IDIuODM2IDIuODM2cy0xLjI2NyAyLjgzNi0yLjgzNiAyLjgzNi0yLjgzNi0xLjI2Ny0yLjgzNi0yLjgzNmMwLS41NDMuMTgtMS4wMjYuNDIyLTEuNDQ4bC42NjQuNzg1YTIuMTcgMi4xNyAwIDAgMC0uMTIxLjY2NCAxLjg4IDEuODggMCAwIDAgMS44NzEgMS44NzEgMS44OCAxLjg4IDAgMCAwIDEuODcxLTEuODcxIDEuODggMS44OCAwIDAgMC0xLjg3MS0xLjg3MWMtLjMwMiAwLS42MDMuMDYtLjg0NS4xOGwtLjYwNC0uNzI0Yy40MjItLjMwMi45NjYtLjQyMiAxLjQ0OC0uNDIyaDB6bTIuODM2LTE4LjE2NWMwIDEuNTctMS4yNjcgMi44MzYtMi44MzYgMi44MzYtLjU0MyAwLTEuMDI2LS4xMi0xLjQ0OC0uNDIybC42MDQtLjcyNGMuMjQuMTIuNTQzLjE4Ljg0NS4yNGExLjg4IDEuODggMCAwIDAgMS44NzEtMS44NzEgMS44OCAxLjg4IDAgMCAwLTEuODcxLTEuODcxIDEuODggMS44OCAwIDAgMC0xLjg3MSAxLjg3MWMwIC4yNC4wNi40MjIuMTIuNjAzbC0uNjY0Ljc4NWMtLjI0LS40MjItLjQyMi0uOTA1LS40MjItMS40NDggMC0xLjU3IDEuMjY3LTIuODM2IDIuODM2LTIuODM2IDEuNTcuMDYgMi44MzYgMS4yNjcgMi44MzYgMi44MzZoMHoiIGZpbGw9IiNjM2U4ZjIiLz48cGF0aCBkPSJNMzMuMjU2LjMxYTYuNDIgNi40MiAwIDAgMSA0LjEwNCA4LjE0N2MtLjI0LjcyNC0uNTQzIDEuMzI4LTEuMDI2IDEuOTNsMS4zMjggMi4wNTJjMS43LS40MjIgMy42OC4yNCA0Ljc2OCAxLjU3bDIuMjkzLS44NDVjMC0uNzI0LjEyLTEuNDQ4LjMwMi0yLjExMmE2LjQyIDYuNDIgMCAwIDEgOC4xNDctNC4xMDRjMy4zOCAxLjA4NiA1LjI1IDQuNzA3IDQuMTA0IDguMTQ3YTYuNDIgNi40MiAwIDAgMS04LjE0NyA0LjEwNGMtLjkwNS0uMzAyLTEuNzUtLjc4NS0yLjQxNC0xLjQ0OGwtMy45MjMgMS41MWMtLjYwNC45NjYtMS41NyAxLjc1LTIuNzE2IDIuMDUybC0uOTA1IDIuNzc2YzEuOTMgMS43IDIuNzE2IDQuNDA2IDEuOTMgNi44OGE2LjQyIDYuNDIgMCAwIDEtOC4xNDcgNC4xMDRjLTMuMzItMS4yNjctNS4yLTQuODg4LTQuMTA0LTguMjY4Ljc4NS0yLjQ3NCAzLjA3OC00LjIyNCA1LjYxMi00LjQwNWwuOTA1LTIuNzc2Yy0uNzI0LS45MDUtMS4wODYtMi4wNTItLjk2Ni0zLjI2TDMyLjExIDEyLjhjLS45NjYuMTItMS45My4wNi0yLjgzNi0uMjQtMy4zOC0xLjA4Ni01LjI1LTQuNzA3LTQuMTY0LTguMDg3IDEuMTQ3LTMuMzggNC43NjgtNS4yNSA4LjE0Ny00LjE2NGgweiIgZmlsbD0iIzA2OTBiYSIvPjxwYXRoIGQ9Ik0yOS44MTcgMTAuODdjMS4wMjYuMzYyIDIuMTEyLjMwMiAzLjA3OC0uMDZsMy4zMiA1LjJjLS4zNjIgMS4yMDcuMTggMi40MTQgMS4xNDcgMy4wNzhsLTEuNyA1LjA3Yy0yLjIzMy0uMzYyLTQuNDY2LjkwNS01LjIgMy4xMzgtLjc4NSAyLjQ3NC41NDMgNS4wNyAyLjk1NyA1LjkxNCAyLjQxNC43ODUgNS4wNy0uNTQzIDUuOTE0LTIuOTU3LjcyNC0yLjIzMy0uMzAyLTQuNTg3LTIuMzU0LTUuNjEybDEuNy01LjA3YzEuMjA3LjA2IDIuMzU0LS42NjQgMi43NzYtMS44bDUuNzk0LTIuMjMzYy41NDMuODQ1IDEuMzg4IDEuNTcgMi40NzQgMS44NyAyLjQ3NC43ODUgNS4wNy0uNTQzIDUuOTE0LTMuMDE3Ljc4NS0yLjQ3NC0uNTQzLTUuMDctMy4wMTctNS45MTQtMi40NzQtLjc4NS01LjA3LjU0My01LjkxNCAyLjk1N2E0LjY0IDQuNjQgMCAwIDAtLjA2IDIuNzE2bC01LjA3IDEuOTkyYy0uMTgtLjkwNS0uODQ1LTEuNzUtMS44LTIuMDUyYTIuOTEgMi45MSAwIDAgMC0yLjcxNi41NDNMMzQuMSAxMC4wMjVjLjcyNC0uNTQzIDEuMjY3LTEuMzI4IDEuNTctMi4yMzMuNzg1LTIuNDc0LS41NDMtNS4wNy0zLjAxNy01Ljg1NHMtNS4wNy41NDMtNS44NTQgMy4wMTcuNTQzIDUuMTMgMy4wMTcgNS45MTRoMHptNy42NjQgMTguNzdjLS40ODMgMS4zODgtMS45MyAyLjE3My0zLjMyIDEuN3MtMi4xNzMtMS45My0xLjctMy4zMmMuMzYyLTEuMTQ3IDEuNTEtMS44NyAyLjY1NS0xLjhsLS4zMDIuOTA1Yy0uNjY0LjA2LTEuMjA3LjU0My0xLjQ0OCAxLjE0N2ExLjcxIDEuNzEgMCAwIDAgMy4yNTkgMS4wODZjLjI0LS42NjQgMC0xLjM4OC0uNDgzLTEuOGwuMzAyLS45NjZjLjk2Ni42NjQgMS40NDggMS44NyAxLjAyNiAzLjA3OGgwem0xMC45ODQtMTcuNTYyYy40ODMtMS41MSAyLjA1Mi0yLjI5MyAzLjU2LTEuOCAxLjQ0OC40ODMgMi4yOTMgMi4xMTIgMS44IDMuNTZzLTIuMDUyIDIuMjkzLTMuNTYgMS44Yy0uNDgzLS4xOC0uOTA1LS40ODMtMS4yMDctLjg0NWwuOTY2LS4zNjJjLjE4LjEyLjM2Mi4yNC42MDMuMzAyLjk2Ni4zMDIgMi4wNTItLjI0IDIuMzU0LTEuMjA3cy0uMjQtMi4wNTItMS4yMDctMi4zNTQtMi4wNTIuMjQtMi40MTQgMS4yMDdjLS4wNi4zMDItLjEyLjYwMy0uMDYuODQ1bC0uOTA1LjM2MmMtLjA2LS40ODMtLjA2LTEuMDI2LjA2LTEuNTFoMHpNMzIuMSAzLjc1YzEuNTEuNDgzIDIuMjkzIDIuMDUyIDEuOCAzLjU2LS4xOC40ODMtLjQyMi45MDUtLjg0NSAxLjI2N2wtLjQ4My0uNzg1YTIuMTcgMi4xNyAwIDAgMCAuNDgzLS43MjRjLjMwMi0xLjAyNi0uMjQtMi4wNTItMS4yMDctMi40MTQtLjk2Ni0uMzAyLTIuMDUyLjI0LTIuNDE0IDEuMjA3LS4zMDIuOTY2LjI0IDIuMDUyIDEuMjA3IDIuMzU0LjE4LjA2LjQyMi4xMi42MDQuMDZsLjU0My44NDVjLS40ODMuMTItLjk2Ni4xMi0xLjUxLS4wNi0xLjUxLS40ODMtMi4yOTMtMi4wNTItMS44LTMuNTYuNTQzLTEuMzg4IDIuMTczLTIuMjMzIDMuNjItMS43NWgweiIgZmlsbD0iI2MzZThmMiIvPjxwYXRoIGQ9Ik0xMC4yMDMgMzQuMjg1Yy42MDMuNDIyIDEuMDg2Ljk2NiAxLjUxIDEuNTdsMi4zNTQtLjYwM2MuMTItMS43IDEuMzg4LTMuNDQgMi45NTctNC4wNDNsLS4xMi0yLjQxNGMtLjY2NC0uMTgtMS4zMjgtLjU0My0xLjkzLS45NjYtMi44MzYtMi4xNzMtMy41LTYuMjE2LTEuMzg4LTkuMTEzczYuMDk1LTMuNSA4Ljk5Mi0xLjM4OGMyLjgzNiAyLjExMiAzLjUgNi4wOTUgMS4zODggOC45OTItLjU0My43ODUtMS4yNjcgMS4zODgtMi4xMTIgMS44N2wuMjQgNC4yMjRjLjcyNC45MDUgMS4xNDcgMi4wNTIgMS4wODYgMy4ybDIuMzU0IDEuN2MyLjE3My0xLjMyOCA1LjAxLTEuMjA3IDcuMTIuMzAyIDIuODk3IDIuMTEyIDMuNSA2LjE1NiAxLjM4OCA4Ljk5Mi0yLjA1MiAyLjg5Ny02LjA5NSAzLjUtOC45OTIgMS40NDgtMi4xMTItMS41MS0zLjA3OC00LjIyNC0yLjQ3NC02LjdsLTIuMzU0LTEuN2MtMS4wODYuNDIyLTIuMjkzLjQyMi0zLjM4LS4wNmwtNC4xMDQgMS4wODZjLS4xOC45NjYtLjU0MyAxLjg3LTEuMTQ3IDIuNTk1LTIuMDUyIDIuODM2LTYuMDM1IDMuNS04LjkzMiAxLjM4OC0yLjg5Ny0yLjA1Mi0zLjUtNi4wOTUtMS40NDgtOC45OTIgMi4xMTItMi44OTcgNi4wOTUtMy41IDguOTkyLTEuMzg4eiIgZmlsbD0iIzA2OTBiYSIvPjxwYXRoIGQ9Ik0xMC4yMDMgNDIuMjUyYy42NjQtLjkwNS45NjYtMS45My45MDUtMi45NTdsNS45NzUtMS41N2EyLjgxIDIuODEgMCAwIDAgMy4zMTktLjE4MWw0LjM0NSAzLjEzOGMtMS4wMjYgMS45OTItLjQ4MyA0LjUyNiAxLjM4OCA1LjkxNCAyLjExMiAxLjUxIDUuMDEgMS4wODYgNi41MTgtMS4wMjYgMS41MS0yLjA1MiAxLjA4Ni01LjAxLTEuMDI2LTYuNTE4LTEuODctMS4zODgtNC40NjYtMS4xNDctNi4wOTUuNDgzbC00LjM0NS0zLjEzOGMuNDIyLTEuMDg2LjEyLTIuNDE0LS44NDUtMy4ybC0uMzYyLTYuMTU2YTQuMTcgNC4xNyAwIDAgMCAyLjUzNS0xLjc1YzEuNTEtMi4xMTIgMS4wMjYtNS4wMS0xLjAyNi02LjUxOHMtNS4wMS0xLjA4Ni02LjUxOCAxLjAyNmMtMS41MSAyLjA1Mi0xLjA4NiA1LjAxIDEuMDI2IDYuNTE4Ljc4NS41NDMgMS43Ljg0NSAyLjU5NS45MDVsLjMwMiA1LjQzYy0uOTY2LS4xMi0xLjkzLjMwMi0yLjUzNSAxLjE0N2EyLjc3IDIuNzcgMCAwIDAtLjMwMiAyLjcxNmwtNS4yNSAxLjM4OGMtLjMwMi0uODQ1LS44NDUtMS42My0xLjYzLTIuMTczLTIuMTEyLTEuNTEtNS4wMS0xLjAyNi02LjUxOCAxLjAyNnMtMS4wODYgNS4wMSAxLjAyNiA2LjUxOCA1LjAxIDEuMDI2IDYuNTE4LTEuMDI2aDB6bTIwLjIxNy0xLjU3YzEuMjA3Ljg0NSAxLjQ0OCAyLjUzNS42MDMgMy42OC0uODQ1IDEuMjA3LTIuNTM1IDEuNDQ4LTMuNjguNjA0LS45NjYtLjcyNC0xLjMyOC0xLjk5Mi0uOTA1LTMuMDc4bC43ODUuNjA0Yy0uMTIuNjY0LjEyIDEuMzI4LjY2NCAxLjc1Ljc4NS41NDMgMS44Ny4zNjIgMi40MTQtLjM2Mi41NDMtLjc4NS40MjItMS44Ny0uMzYyLTIuNDE0LS41NDMtLjQyMi0xLjMyOC0uNDIyLTEuODctLjEybC0uOTA1LS42MDNjLjk2Ni0uNzI0IDIuMjMzLS43ODUgMy4yNi0uMDZoMHpNMTcuMDgyIDI0LjgxYy0xLjI2Ny0uOTA1LTEuNTEtMi43MTYtLjYwNC0zLjkyMy45MDUtMS4yNjcgMi43MTYtMS41MSAzLjkyMy0uNjAzIDEuMjY3LjkwNSAxLjU3IDIuNzE2LjYwNCAzLjkyM2EyLjc0IDIuNzQgMCAwIDEtMS4xNDcuOTA1bC0uMDYtMS4wMjZjLjE4LS4xMi4zNjItLjI0LjQ4My0uNDIyLjYwMy0uODQ1LjQyMi0yLjA1Mi0uNDIyLTIuNjU1cy0yLjA1Mi0uNDIyLTIuNjU1LjQyMi0uNDIyIDIuMDUyLjQyMiAyLjY1NWMuMjQuMTguNTQzLjMwMi43ODUuMzAybC4wNi45NjZjLS40MjItLjA2LS45MDUtLjI0LTEuMzg4LS41NDNoMHpNNC4xNjggMzcuODQ2Yy45MDUtMS4yNjcgMi43MTYtMS41NyAzLjkyMy0uNjAzLjQyMi4zMDIuNzI0LjcyNC45NjYgMS4xNDdsLS45NjYuMjRjLS4xMi0uMjQtLjMwMi0uNDgzLS41NDMtLjY2NC0uODQ1LS42MDMtMi4wNTItLjQyMi0yLjY1NS40MjJzLS40MjIgMi4wNTIuNDIyIDIuNjU1IDIuMDUyLjQyMiAyLjY1NS0uNDIyYy4xMi0uMTguMjQtLjM2Mi4zMDItLjYwM2wxLjAyNi0uMjRjLS4wNi40ODMtLjE4Ljk2Ni0uNTQzIDEuMzg4LS45MDUgMS4yNjctMi42NTUgMS41MS0zLjkyMy42MDMtMS4zMjgtLjkwNS0xLjU3LTIuNzE2LS42NjQtMy45MjNoMHoiIGZpbGw9IiNjM2U4ZjIiLz48L2c+PC9zeW1ib2w+PC9zdmc+;fontFamily=Manrope;fontSource=https%3A%2F%2Ffonts.googleapis.com%2Fcss%3Ffamily%3DManrope;" parent="1" vertex="1">
          <mxGeometry x="576.56" y="40" width="37.38" height="38.33" as="geometry" />
        </mxCell>
        <mxCell id="JYd7_30XWuRbHft9SAFf-46" value="&lt;font style=&quot;font-size: 12px&quot; color=&quot;#000000&quot;&gt;&lt;span style=&quot;font-size: 12px&quot;&gt;InfluxDB&lt;/span&gt;&lt;/font&gt;" style="text;html=1;resizable=0;points=[];autosize=1;align=center;verticalAlign=middle;spacingTop=-4;fontSize=12;fontFamily=Manrope;fontColor=#001135;fontSource=https%3A%2F%2Ffonts.googleapis.com%2Fcss%3Ffamily%3DManrope;" parent="1" vertex="1">
          <mxGeometry x="565.2450000000003" y="20" width="60" height="20" as="geometry" />
        </mxCell>
        <mxCell id="JYd7_30XWuRbHft9SAFf-47" value="" style="endArrow=none;html=1;rounded=0;fontSize=17;fontFamily=Manrope;fontSource=https%3A%2F%2Ffonts.googleapis.com%2Fcss%3Ffamily%3DManrope;" parent="1" edge="1">
          <mxGeometry width="50" height="50" relative="1" as="geometry">
            <mxPoint x="39.99999999999977" y="560" as="sourcePoint" />
            <mxPoint x="800" y="560" as="targetPoint" />
          </mxGeometry>
        </mxCell>
        <mxCell id="LAWaLjkw7gOKWrDd--gR-1" value="&lt;font style=&quot;font-size: 18px;&quot; data-font-src=&quot;https://fonts.googleapis.com/css?family=Manrope&quot; face=&quot;Manrope&quot;&gt;Cache Disabled&lt;/font&gt;" style="text;html=1;strokeColor=none;fillColor=none;align=center;verticalAlign=middle;whiteSpace=wrap;rounded=0;fontFamily=Tahoma;fontSize=16;fontColor=#000000;" vertex="1" parent="1">
          <mxGeometry x="352" y="48.33" width="147" height="30" as="geometry" />
        </mxCell>
        <mxCell id="LAWaLjkw7gOKWrDd--gR-2" value="&lt;font style=&quot;font-size: 18px;&quot; data-font-src=&quot;https://fonts.googleapis.com/css?family=Manrope&quot; face=&quot;Manrope&quot;&gt;Cache Enabled&lt;/font&gt;" style="text;html=1;strokeColor=none;fillColor=none;align=center;verticalAlign=middle;whiteSpace=wrap;rounded=0;fontFamily=Tahoma;fontSize=16;fontColor=#000000;" vertex="1" parent="1">
          <mxGeometry x="357" y="604.16" width="137" height="30" as="geometry" />
        </mxCell>
      </root>
    </mxGraphModel>
  </diagram>
</mxfile>
